<mxfile host="app.diagrams.net" modified="2023-10-13T02:31:41.356Z" agent="Mozilla/5.0 (X11; Linux x86_64; rv:109.0) Gecko/20100101 Firefox/119.0" version="22.0.4" etag="VT45p22PesKlE7EOasHu" type="github">
  <diagram name="Page-1" id="irFqWwK0eRBBMlOJZGHF">
    <mxGraphModel>
      <root>
        <mxCell id="0" />
        <mxCell id="1" parent="0" />
      </root>
    </mxGraphModel>
  </diagram>
</mxfile>
